<svg xmlns="http://www.w3.org/2000/svg" xmlns:xlink="http://www.w3.org/1999/xlink" width="960" zoomAndPan="magnify" viewBox="0 0 720 404.99999" height="540" preserveAspectRatio="xMidYMid meet" version="1.0"><defs><g/></defs><g fill="#ff00ff" fill-opacity="1"><g transform="translate(197.381041, 243.148868)"><g><path d="M 29.515625 2.015625 C 22.617188 2.015625 16.375 0.898438 10.78125 -1.328125 C 5.1875 -3.554688 0.582031 -6.8125 -3.03125 -11.09375 L 13 -30.015625 C 15.351562 -27.078125 17.664062 -24.890625 19.9375 -23.453125 C 22.207031 -22.023438 24.5625 -21.3125 27 -21.3125 C 30.101562 -21.3125 32.472656 -22.238281 34.109375 -24.09375 C 35.753906 -25.945312 36.578125 -28.679688 36.578125 -32.296875 L 36.578125 -65.84375 L 6.5625 -65.84375 L 6.5625 -88.296875 L 65.96875 -88.296875 L 65.96875 -34.0625 C 65.96875 -22.03125 62.875 -13.007812 56.6875 -7 C 50.507812 -0.988281 41.453125 2.015625 29.515625 2.015625 Z M 29.515625 2.015625 "/></g></g></g><g fill="#ff00ff" fill-opacity="1"><g transform="translate(269.781443, 243.148868)"><g><path d="M 53.484375 2.015625 C 43.984375 2.015625 35.445312 0.0390625 27.875 -3.90625 C 20.3125 -7.863281 14.382812 -13.351562 10.09375 -20.375 C 5.800781 -27.394531 3.65625 -35.320312 3.65625 -44.15625 C 3.65625 -52.976562 5.800781 -60.898438 10.09375 -67.921875 C 14.382812 -74.941406 20.3125 -80.425781 27.875 -84.375 C 35.445312 -88.332031 43.984375 -90.3125 53.484375 -90.3125 C 62.984375 -90.3125 71.515625 -88.332031 79.078125 -84.375 C 86.648438 -80.425781 92.582031 -74.941406 96.875 -67.921875 C 101.164062 -60.898438 103.3125 -52.976562 103.3125 -44.15625 C 103.3125 -35.320312 101.164062 -27.394531 96.875 -20.375 C 92.582031 -13.351562 86.648438 -7.863281 79.078125 -3.90625 C 71.515625 0.0390625 62.984375 2.015625 53.484375 2.015625 Z M 53.484375 -22.078125 C 57.179688 -22.078125 60.519531 -22.976562 63.5 -24.78125 C 66.488281 -26.59375 68.863281 -29.160156 70.625 -32.484375 C 72.394531 -35.804688 73.28125 -39.695312 73.28125 -44.15625 C 73.28125 -48.601562 72.394531 -52.488281 70.625 -55.8125 C 68.863281 -59.132812 66.488281 -61.695312 63.5 -63.5 C 60.519531 -65.3125 57.179688 -66.21875 53.484375 -66.21875 C 49.785156 -66.21875 46.441406 -65.3125 43.453125 -63.5 C 40.472656 -61.695312 38.097656 -59.132812 36.328125 -55.8125 C 34.554688 -52.488281 33.671875 -48.601562 33.671875 -44.15625 C 33.671875 -39.695312 34.554688 -35.804688 36.328125 -32.484375 C 38.097656 -29.160156 40.472656 -26.59375 43.453125 -24.78125 C 46.441406 -22.976562 49.785156 -22.078125 53.484375 -22.078125 Z M 53.484375 -22.078125 "/></g></g></g><g fill="#ff00ff" fill-opacity="1"><g transform="translate(376.742314, 243.148868)"><g><path d="M 7.1875 -88.296875 L 36.953125 -88.296875 L 36.953125 -23.078125 L 76.8125 -23.078125 L 76.8125 0 L 7.1875 0 Z M 7.1875 -88.296875 "/></g></g></g><g fill="#ff00ff" fill-opacity="1"><g transform="translate(454.566433, 243.148868)"><g><path d="M 26.359375 -65.21875 L 0.5 -65.21875 L 0.5 -88.296875 L 81.984375 -88.296875 L 81.984375 -65.21875 L 56.125 -65.21875 L 56.125 0 L 26.359375 0 Z M 26.359375 -65.21875 "/></g></g></g><g fill="#00ffff" fill-opacity="1"><g transform="translate(182.865144, 249.310498)"><g><path d="M 29.515625 2.015625 C 22.617188 2.015625 16.375 0.898438 10.78125 -1.328125 C 5.1875 -3.554688 0.582031 -6.8125 -3.03125 -11.09375 L 13 -30.015625 C 15.351562 -27.078125 17.664062 -24.890625 19.9375 -23.453125 C 22.207031 -22.023438 24.5625 -21.3125 27 -21.3125 C 30.101562 -21.3125 32.472656 -22.238281 34.109375 -24.09375 C 35.753906 -25.945312 36.578125 -28.679688 36.578125 -32.296875 L 36.578125 -65.84375 L 6.5625 -65.84375 L 6.5625 -88.296875 L 65.96875 -88.296875 L 65.96875 -34.0625 C 65.96875 -22.03125 62.875 -13.007812 56.6875 -7 C 50.507812 -0.988281 41.453125 2.015625 29.515625 2.015625 Z M 29.515625 2.015625 "/></g></g></g><g fill="#00ffff" fill-opacity="1"><g transform="translate(255.265545, 249.310498)"><g><path d="M 53.484375 2.015625 C 43.984375 2.015625 35.445312 0.0390625 27.875 -3.90625 C 20.3125 -7.863281 14.382812 -13.351562 10.09375 -20.375 C 5.800781 -27.394531 3.65625 -35.320312 3.65625 -44.15625 C 3.65625 -52.976562 5.800781 -60.898438 10.09375 -67.921875 C 14.382812 -74.941406 20.3125 -80.425781 27.875 -84.375 C 35.445312 -88.332031 43.984375 -90.3125 53.484375 -90.3125 C 62.984375 -90.3125 71.515625 -88.332031 79.078125 -84.375 C 86.648438 -80.425781 92.582031 -74.941406 96.875 -67.921875 C 101.164062 -60.898438 103.3125 -52.976562 103.3125 -44.15625 C 103.3125 -35.320312 101.164062 -27.394531 96.875 -20.375 C 92.582031 -13.351562 86.648438 -7.863281 79.078125 -3.90625 C 71.515625 0.0390625 62.984375 2.015625 53.484375 2.015625 Z M 53.484375 -22.078125 C 57.179688 -22.078125 60.519531 -22.976562 63.5 -24.78125 C 66.488281 -26.59375 68.863281 -29.160156 70.625 -32.484375 C 72.394531 -35.804688 73.28125 -39.695312 73.28125 -44.15625 C 73.28125 -48.601562 72.394531 -52.488281 70.625 -55.8125 C 68.863281 -59.132812 66.488281 -61.695312 63.5 -63.5 C 60.519531 -65.3125 57.179688 -66.21875 53.484375 -66.21875 C 49.785156 -66.21875 46.441406 -65.3125 43.453125 -63.5 C 40.472656 -61.695312 38.097656 -59.132812 36.328125 -55.8125 C 34.554688 -52.488281 33.671875 -48.601562 33.671875 -44.15625 C 33.671875 -39.695312 34.554688 -35.804688 36.328125 -32.484375 C 38.097656 -29.160156 40.472656 -26.59375 43.453125 -24.78125 C 46.441406 -22.976562 49.785156 -22.078125 53.484375 -22.078125 Z M 53.484375 -22.078125 "/></g></g></g><g fill="#00ffff" fill-opacity="1"><g transform="translate(362.226416, 249.310498)"><g><path d="M 7.1875 -88.296875 L 36.953125 -88.296875 L 36.953125 -23.078125 L 76.8125 -23.078125 L 76.8125 0 L 7.1875 0 Z M 7.1875 -88.296875 "/></g></g></g><g fill="#00ffff" fill-opacity="1"><g transform="translate(440.050535, 249.310498)"><g><path d="M 26.359375 -65.21875 L 0.5 -65.21875 L 0.5 -88.296875 L 81.984375 -88.296875 L 81.984375 -65.21875 L 56.125 -65.21875 L 56.125 0 L 26.359375 0 Z M 26.359375 -65.21875 "/></g></g></g><g fill="#dddddd" fill-opacity="1"><g transform="translate(190.123091, 246.229683)"><g><path d="M 29.515625 2.015625 C 22.617188 2.015625 16.375 0.898438 10.78125 -1.328125 C 5.1875 -3.554688 0.582031 -6.8125 -3.03125 -11.09375 L 13 -30.015625 C 15.351562 -27.078125 17.664062 -24.890625 19.9375 -23.453125 C 22.207031 -22.023438 24.5625 -21.3125 27 -21.3125 C 30.101562 -21.3125 32.472656 -22.238281 34.109375 -24.09375 C 35.753906 -25.945312 36.578125 -28.679688 36.578125 -32.296875 L 36.578125 -65.84375 L 6.5625 -65.84375 L 6.5625 -88.296875 L 65.96875 -88.296875 L 65.96875 -34.0625 C 65.96875 -22.03125 62.875 -13.007812 56.6875 -7 C 50.507812 -0.988281 41.453125 2.015625 29.515625 2.015625 Z M 29.515625 2.015625 "/></g></g></g><g fill="#dddddd" fill-opacity="1"><g transform="translate(262.523493, 246.229683)"><g><path d="M 53.484375 2.015625 C 43.984375 2.015625 35.445312 0.0390625 27.875 -3.90625 C 20.3125 -7.863281 14.382812 -13.351562 10.09375 -20.375 C 5.800781 -27.394531 3.65625 -35.320312 3.65625 -44.15625 C 3.65625 -52.976562 5.800781 -60.898438 10.09375 -67.921875 C 14.382812 -74.941406 20.3125 -80.425781 27.875 -84.375 C 35.445312 -88.332031 43.984375 -90.3125 53.484375 -90.3125 C 62.984375 -90.3125 71.515625 -88.332031 79.078125 -84.375 C 86.648438 -80.425781 92.582031 -74.941406 96.875 -67.921875 C 101.164062 -60.898438 103.3125 -52.976562 103.3125 -44.15625 C 103.3125 -35.320312 101.164062 -27.394531 96.875 -20.375 C 92.582031 -13.351562 86.648438 -7.863281 79.078125 -3.90625 C 71.515625 0.0390625 62.984375 2.015625 53.484375 2.015625 Z M 53.484375 -22.078125 C 57.179688 -22.078125 60.519531 -22.976562 63.5 -24.78125 C 66.488281 -26.59375 68.863281 -29.160156 70.625 -32.484375 C 72.394531 -35.804688 73.28125 -39.695312 73.28125 -44.15625 C 73.28125 -48.601562 72.394531 -52.488281 70.625 -55.8125 C 68.863281 -59.132812 66.488281 -61.695312 63.5 -63.5 C 60.519531 -65.3125 57.179688 -66.21875 53.484375 -66.21875 C 49.785156 -66.21875 46.441406 -65.3125 43.453125 -63.5 C 40.472656 -61.695312 38.097656 -59.132812 36.328125 -55.8125 C 34.554688 -52.488281 33.671875 -48.601562 33.671875 -44.15625 C 33.671875 -39.695312 34.554688 -35.804688 36.328125 -32.484375 C 38.097656 -29.160156 40.472656 -26.59375 43.453125 -24.78125 C 46.441406 -22.976562 49.785156 -22.078125 53.484375 -22.078125 Z M 53.484375 -22.078125 "/></g></g></g><g fill="#dddddd" fill-opacity="1"><g transform="translate(369.484364, 246.229683)"><g><path d="M 7.1875 -88.296875 L 36.953125 -88.296875 L 36.953125 -23.078125 L 76.8125 -23.078125 L 76.8125 0 L 7.1875 0 Z M 7.1875 -88.296875 "/></g></g></g><g fill="#dddddd" fill-opacity="1"><g transform="translate(447.308483, 246.229683)"><g><path d="M 26.359375 -65.21875 L 0.5 -65.21875 L 0.5 -88.296875 L 81.984375 -88.296875 L 81.984375 -65.21875 L 56.125 -65.21875 L 56.125 0 L 26.359375 0 Z M 26.359375 -65.21875 "/></g></g></g></svg>
